<?xml version="1.0" standalone="no"?><!DOCTYPE svg PUBLIC "-//W3C//DTD SVG 1.1//EN" "http://www.w3.org/Graphics/SVG/1.1/DTD/svg11.dtd"><svg t="1537363218086" class="icon" style="" viewBox="0 0 1024 1024" version="1.1" xmlns="http://www.w3.org/2000/svg" p-id="2058" xmlns:xlink="http://www.w3.org/1999/xlink" width="32" height="32"><defs><style type="text/css">html, * { -moz-user-select: text !important; }
</style></defs><path d="M551.384615 937.353846H472.615385c-212.676923 0-385.969231-173.292308-385.969231-385.969231V472.615385c0-212.676923 173.292308-385.969231 385.969231-385.969231h78.76923c134.695385 0 253.636923 69.316923 322.953847 174.867692V118.153846c0-17.329231 14.178462-31.507692 31.507692-31.507692s31.507692 14.178462 31.507692 31.507692v433.230769c0 17.329231-14.178462 31.507692-31.507692 31.507693s-31.507692-14.178462-31.507692-31.507693V472.615385c0-178.018462-144.935385-322.953846-322.953847-322.953847H472.615385c-178.018462 0-322.953846 144.935385-322.953847 322.953847v78.76923c0 178.018462 144.935385 322.953846 322.953847 322.953847h78.76923c17.329231 0 31.507692 14.178462 31.507693 31.507692s-14.178462 31.507692-31.507693 31.507692z" fill="#2d465f" p-id="2059"></path><path d="M527.753846 669.538462h-31.507692c-77.981538 0-141.784615-63.803077-141.784616-141.784616v-31.507692c0-77.981538 63.803077-141.784615 141.784616-141.784616h31.507692c77.981538 0 141.784615 63.803077 141.784616 141.784616v31.507692c0 77.981538-63.803077 141.784615-141.784616 141.784616z" fill="#2d465f" p-id="2060"></path><path d="M527.753846 701.046154h-31.507692c-95.310769 0-173.292308-77.981538-173.292308-173.292308v-31.507692c0-95.310769 77.981538-173.292308 173.292308-173.292308h31.507692c95.310769 0 173.292308 77.981538 173.292308 173.292308v31.507692c0 95.310769-77.981538 173.292308-173.292308 173.292308z m-31.507692-315.076923c-60.652308 0-110.276923 49.624615-110.276923 110.276923v31.507692c0 60.652308 49.624615 110.276923 110.276923 110.276923h31.507692c60.652308 0 110.276923-49.624615 110.276923-110.276923v-31.507692c0-60.652308-49.624615-110.276923-110.276923-110.276923h-31.507692z" fill="#2d465f" p-id="2061"></path></svg>